<mxfile host="app.diagrams.net" modified="2023-07-22T14:17:44.930Z" agent="Mozilla/5.0 (Windows NT 10.0; Win64; x64) AppleWebKit/537.36 (KHTML, like Gecko) Chrome/114.0.0.0 Safari/537.36" etag="I94LXY6A7-o3rroKXOxI" version="21.6.3" type="device">
  <diagram name="Page-1" id="PGAJwNoTrGL2qFw0p6o9">
    <mxGraphModel dx="2150" dy="1881" grid="1" gridSize="10" guides="1" tooltips="1" connect="1" arrows="1" fold="1" page="1" pageScale="1" pageWidth="850" pageHeight="1100" math="0" shadow="0">
      <root>
        <mxCell id="0" />
        <mxCell id="1" parent="0" />
        <mxCell id="tEQEtVdm0KxNnin3mhNr-27" style="edgeStyle=orthogonalEdgeStyle;rounded=0;orthogonalLoop=1;jettySize=auto;html=1;exitX=0.529;exitY=1.019;exitDx=0;exitDy=0;entryX=0;entryY=0.5;entryDx=0;entryDy=0;endArrow=none;endFill=0;exitPerimeter=0;" parent="1" source="0KQ5BcPpPN2Ff0RQvbfW-4" target="tEQEtVdm0KxNnin3mhNr-23" edge="1">
          <mxGeometry relative="1" as="geometry">
            <mxPoint x="620" y="270" as="sourcePoint" />
          </mxGeometry>
        </mxCell>
        <mxCell id="tEQEtVdm0KxNnin3mhNr-23" value="Categoria" style="swimlane;fontStyle=1;align=center;verticalAlign=top;childLayout=stackLayout;horizontal=1;startSize=26;horizontalStack=0;resizeParent=1;resizeParentMax=0;resizeLast=0;collapsible=1;marginBottom=0;whiteSpace=wrap;html=1;" parent="1" vertex="1">
          <mxGeometry x="850" y="298" width="160" height="60" as="geometry" />
        </mxCell>
        <mxCell id="tEQEtVdm0KxNnin3mhNr-24" value="nome: stringa" style="text;strokeColor=none;fillColor=none;align=left;verticalAlign=top;spacingLeft=4;spacingRight=4;overflow=hidden;rotatable=0;points=[[0,0.5],[1,0.5]];portConstraint=eastwest;whiteSpace=wrap;html=1;" parent="tEQEtVdm0KxNnin3mhNr-23" vertex="1">
          <mxGeometry y="26" width="160" height="26" as="geometry" />
        </mxCell>
        <mxCell id="tEQEtVdm0KxNnin3mhNr-25" value="" style="line;strokeWidth=1;fillColor=none;align=left;verticalAlign=middle;spacingTop=-1;spacingLeft=3;spacingRight=3;rotatable=0;labelPosition=right;points=[];portConstraint=eastwest;strokeColor=inherit;" parent="tEQEtVdm0KxNnin3mhNr-23" vertex="1">
          <mxGeometry y="52" width="160" height="8" as="geometry" />
        </mxCell>
        <mxCell id="tEQEtVdm0KxNnin3mhNr-28" value="categ_video" style="text;html=1;align=center;verticalAlign=middle;resizable=0;points=[];autosize=1;strokeColor=none;fillColor=none;" parent="1" vertex="1">
          <mxGeometry x="689" y="298" width="90" height="30" as="geometry" />
        </mxCell>
        <mxCell id="tEQEtVdm0KxNnin3mhNr-29" value="0..*" style="text;html=1;align=center;verticalAlign=middle;resizable=0;points=[];autosize=1;strokeColor=none;fillColor=none;" parent="1" vertex="1">
          <mxGeometry x="570" y="260" width="40" height="30" as="geometry" />
        </mxCell>
        <mxCell id="tEQEtVdm0KxNnin3mhNr-31" value="1..1" style="text;html=1;align=center;verticalAlign=middle;resizable=0;points=[];autosize=1;strokeColor=none;fillColor=none;" parent="1" vertex="1">
          <mxGeometry x="810" y="330" width="40" height="30" as="geometry" />
        </mxCell>
        <mxCell id="tEQEtVdm0KxNnin3mhNr-32" value="Tag" style="swimlane;fontStyle=1;align=center;verticalAlign=top;childLayout=stackLayout;horizontal=1;startSize=26;horizontalStack=0;resizeParent=1;resizeParentMax=0;resizeLast=0;collapsible=1;marginBottom=0;whiteSpace=wrap;html=1;" parent="1" vertex="1">
          <mxGeometry x="900" y="192" width="160" height="60" as="geometry" />
        </mxCell>
        <mxCell id="tEQEtVdm0KxNnin3mhNr-33" value="nome:strniga" style="text;strokeColor=none;fillColor=none;align=left;verticalAlign=top;spacingLeft=4;spacingRight=4;overflow=hidden;rotatable=0;points=[[0,0.5],[1,0.5]];portConstraint=eastwest;whiteSpace=wrap;html=1;" parent="tEQEtVdm0KxNnin3mhNr-32" vertex="1">
          <mxGeometry y="26" width="160" height="26" as="geometry" />
        </mxCell>
        <mxCell id="tEQEtVdm0KxNnin3mhNr-34" value="" style="line;strokeWidth=1;fillColor=none;align=left;verticalAlign=middle;spacingTop=-1;spacingLeft=3;spacingRight=3;rotatable=0;labelPosition=right;points=[];portConstraint=eastwest;strokeColor=inherit;" parent="tEQEtVdm0KxNnin3mhNr-32" vertex="1">
          <mxGeometry y="52" width="160" height="8" as="geometry" />
        </mxCell>
        <mxCell id="tEQEtVdm0KxNnin3mhNr-39" value="tag_video" style="text;html=1;align=center;verticalAlign=middle;resizable=0;points=[];autosize=1;strokeColor=none;fillColor=none;" parent="1" vertex="1">
          <mxGeometry x="750" y="227" width="80" height="30" as="geometry" />
        </mxCell>
        <mxCell id="tEQEtVdm0KxNnin3mhNr-40" value="0..*" style="text;html=1;align=center;verticalAlign=middle;resizable=0;points=[];autosize=1;strokeColor=none;fillColor=none;" parent="1" vertex="1">
          <mxGeometry x="860" y="207" width="40" height="30" as="geometry" />
        </mxCell>
        <mxCell id="tEQEtVdm0KxNnin3mhNr-41" value="1..*" style="text;html=1;align=center;verticalAlign=middle;resizable=0;points=[];autosize=1;strokeColor=none;fillColor=none;" parent="1" vertex="1">
          <mxGeometry x="649" y="206" width="40" height="30" as="geometry" />
        </mxCell>
        <mxCell id="0KQ5BcPpPN2Ff0RQvbfW-7" style="edgeStyle=orthogonalEdgeStyle;rounded=0;orthogonalLoop=1;jettySize=auto;html=1;exitX=0.487;exitY=1.108;exitDx=0;exitDy=0;entryX=-0.008;entryY=0.773;entryDx=0;entryDy=0;entryPerimeter=0;endArrow=none;endFill=0;exitPerimeter=0;" parent="1" edge="1">
          <mxGeometry relative="1" as="geometry">
            <mxPoint x="-24.730000000000018" y="176.808" as="sourcePoint" />
            <mxPoint x="478.6399999999999" y="249.1959999999999" as="targetPoint" />
            <Array as="points">
              <mxPoint x="-25" y="251" />
              <mxPoint x="479" y="251" />
            </Array>
          </mxGeometry>
        </mxCell>
        <mxCell id="tEQEtVdm0KxNnin3mhNr-81" value="autore" style="text;html=1;align=center;verticalAlign=middle;resizable=0;points=[];autosize=1;strokeColor=none;fillColor=none;" parent="1" vertex="1">
          <mxGeometry x="190" y="222" width="60" height="30" as="geometry" />
        </mxCell>
        <mxCell id="tEQEtVdm0KxNnin3mhNr-83" value="0..*" style="text;html=1;align=center;verticalAlign=middle;resizable=0;points=[];autosize=1;strokeColor=none;fillColor=none;" parent="1" vertex="1">
          <mxGeometry x="450" y="224" width="40" height="30" as="geometry" />
        </mxCell>
        <mxCell id="tEQEtVdm0KxNnin3mhNr-109" value="originale" style="text;html=1;align=center;verticalAlign=middle;resizable=0;points=[];autosize=1;strokeColor=none;fillColor=none;" parent="1" vertex="1">
          <mxGeometry x="641" y="173" width="70" height="30" as="geometry" />
        </mxCell>
        <mxCell id="tEQEtVdm0KxNnin3mhNr-110" value="risposta" style="text;html=1;align=center;verticalAlign=middle;resizable=0;points=[];autosize=1;strokeColor=none;fillColor=none;" parent="1" vertex="1">
          <mxGeometry x="603" y="79" width="70" height="30" as="geometry" />
        </mxCell>
        <mxCell id="tEQEtVdm0KxNnin3mhNr-111" value="0..*" style="text;html=1;align=center;verticalAlign=middle;resizable=0;points=[];autosize=1;strokeColor=none;fillColor=none;" parent="1" vertex="1">
          <mxGeometry x="610" y="100" width="40" height="30" as="geometry" />
        </mxCell>
        <mxCell id="tEQEtVdm0KxNnin3mhNr-113" value="0..1" style="text;html=1;align=center;verticalAlign=middle;resizable=0;points=[];autosize=1;strokeColor=none;fillColor=none;" parent="1" vertex="1">
          <mxGeometry x="644" y="152" width="40" height="30" as="geometry" />
        </mxCell>
        <mxCell id="tEQEtVdm0KxNnin3mhNr-114" value="in_risposta_a" style="text;html=1;align=center;verticalAlign=middle;resizable=0;points=[];autosize=1;strokeColor=none;fillColor=none;" parent="1" vertex="1">
          <mxGeometry x="720" y="77" width="90" height="30" as="geometry" />
        </mxCell>
        <mxCell id="0KQ5BcPpPN2Ff0RQvbfW-6" style="edgeStyle=orthogonalEdgeStyle;rounded=0;orthogonalLoop=1;jettySize=auto;html=1;exitX=1;exitY=0.25;exitDx=0;exitDy=0;entryX=-0.016;entryY=0.777;entryDx=0;entryDy=0;entryPerimeter=0;endArrow=none;endFill=0;" parent="1" source="tEQEtVdm0KxNnin3mhNr-119" target="0KQ5BcPpPN2Ff0RQvbfW-2" edge="1">
          <mxGeometry relative="1" as="geometry" />
        </mxCell>
        <mxCell id="094TVuyrTuDsaZi3VQMl-9" style="edgeStyle=orthogonalEdgeStyle;rounded=0;orthogonalLoop=1;jettySize=auto;html=1;exitX=0.5;exitY=0;exitDx=0;exitDy=0;entryX=0.5;entryY=1;entryDx=0;entryDy=0;endArrow=none;endFill=0;" parent="1" source="tEQEtVdm0KxNnin3mhNr-119" target="0KQ5BcPpPN2Ff0RQvbfW-18" edge="1">
          <mxGeometry relative="1" as="geometry" />
        </mxCell>
        <mxCell id="tEQEtVdm0KxNnin3mhNr-119" value="Visualizzazione" style="swimlane;fontStyle=1;align=center;verticalAlign=top;childLayout=stackLayout;horizontal=1;startSize=26;horizontalStack=0;resizeParent=1;resizeParentMax=0;resizeLast=0;collapsible=1;marginBottom=0;whiteSpace=wrap;html=1;" parent="1" vertex="1">
          <mxGeometry x="220" y="105" width="160" height="60" as="geometry" />
        </mxCell>
        <mxCell id="tEQEtVdm0KxNnin3mhNr-120" value="&lt;div&gt;istante: datetime&lt;br&gt;&lt;/div&gt;" style="text;strokeColor=none;fillColor=none;align=left;verticalAlign=top;spacingLeft=4;spacingRight=4;overflow=hidden;rotatable=0;points=[[0,0.5],[1,0.5]];portConstraint=eastwest;whiteSpace=wrap;html=1;" parent="tEQEtVdm0KxNnin3mhNr-119" vertex="1">
          <mxGeometry y="26" width="160" height="26" as="geometry" />
        </mxCell>
        <mxCell id="tEQEtVdm0KxNnin3mhNr-121" value="" style="line;strokeWidth=1;fillColor=none;align=left;verticalAlign=middle;spacingTop=-1;spacingLeft=3;spacingRight=3;rotatable=0;labelPosition=right;points=[];portConstraint=eastwest;strokeColor=inherit;" parent="tEQEtVdm0KxNnin3mhNr-119" vertex="1">
          <mxGeometry y="52" width="160" height="8" as="geometry" />
        </mxCell>
        <mxCell id="tEQEtVdm0KxNnin3mhNr-128" value="cronologia" style="text;html=1;align=center;verticalAlign=middle;resizable=0;points=[];autosize=1;strokeColor=none;fillColor=none;" parent="1" vertex="1">
          <mxGeometry x="120" y="143" width="80" height="30" as="geometry" />
        </mxCell>
        <mxCell id="tEQEtVdm0KxNnin3mhNr-131" value="0..*" style="text;html=1;align=center;verticalAlign=middle;resizable=0;points=[];autosize=1;strokeColor=none;fillColor=none;" parent="1" vertex="1">
          <mxGeometry x="890" y="180" width="40" height="30" as="geometry" />
        </mxCell>
        <mxCell id="tEQEtVdm0KxNnin3mhNr-132" value="0..*" style="text;html=1;align=center;verticalAlign=middle;resizable=0;points=[];autosize=1;strokeColor=none;fillColor=none;" parent="1" vertex="1">
          <mxGeometry x="380" y="90" width="40" height="30" as="geometry" />
        </mxCell>
        <mxCell id="tEQEtVdm0KxNnin3mhNr-133" value="1..1" style="text;html=1;align=center;verticalAlign=middle;resizable=0;points=[];autosize=1;strokeColor=none;fillColor=none;" parent="1" vertex="1">
          <mxGeometry x="950" y="328" width="40" height="30" as="geometry" />
        </mxCell>
        <mxCell id="tEQEtVdm0KxNnin3mhNr-134" value="1..1" style="text;html=1;align=center;verticalAlign=middle;resizable=0;points=[];autosize=1;strokeColor=none;fillColor=none;" parent="1" vertex="1">
          <mxGeometry x="440" y="162" width="40" height="30" as="geometry" />
        </mxCell>
        <mxCell id="tEQEtVdm0KxNnin3mhNr-135" value="vis_video" style="text;html=1;align=center;verticalAlign=middle;resizable=0;points=[];autosize=1;strokeColor=none;fillColor=none;" parent="1" vertex="1">
          <mxGeometry x="355" y="173" width="70" height="30" as="geometry" />
        </mxCell>
        <mxCell id="0KQ5BcPpPN2Ff0RQvbfW-1" value="Video" style="swimlane;fontStyle=1;align=center;verticalAlign=top;childLayout=stackLayout;horizontal=1;startSize=26;horizontalStack=0;resizeParent=1;resizeParentMax=0;resizeLast=0;collapsible=1;marginBottom=0;whiteSpace=wrap;html=1;" parent="1" vertex="1">
          <mxGeometry x="480" y="130" width="220" height="150" as="geometry" />
        </mxCell>
        <mxCell id="094TVuyrTuDsaZi3VQMl-29" style="edgeStyle=orthogonalEdgeStyle;rounded=0;orthogonalLoop=1;jettySize=auto;html=1;exitX=1;exitY=0.5;exitDx=0;exitDy=0;entryX=0.75;entryY=0;entryDx=0;entryDy=0;endArrow=none;endFill=0;" parent="0KQ5BcPpPN2Ff0RQvbfW-1" source="0KQ5BcPpPN2Ff0RQvbfW-2" target="0KQ5BcPpPN2Ff0RQvbfW-1" edge="1">
          <mxGeometry relative="1" as="geometry">
            <Array as="points">
              <mxPoint x="240" y="48" />
              <mxPoint x="240" y="-50" />
              <mxPoint x="128" y="-50" />
            </Array>
          </mxGeometry>
        </mxCell>
        <mxCell id="0KQ5BcPpPN2Ff0RQvbfW-2" value="titolo: stringa&lt;br&gt;file: FileVideo" style="text;strokeColor=none;fillColor=none;align=left;verticalAlign=top;spacingLeft=4;spacingRight=4;overflow=hidden;rotatable=0;points=[[0,0.5],[1,0.5]];portConstraint=eastwest;whiteSpace=wrap;html=1;" parent="0KQ5BcPpPN2Ff0RQvbfW-1" vertex="1">
          <mxGeometry y="26" width="220" height="44" as="geometry" />
        </mxCell>
        <mxCell id="0KQ5BcPpPN2Ff0RQvbfW-3" value="" style="line;strokeWidth=1;fillColor=none;align=left;verticalAlign=middle;spacingTop=-1;spacingLeft=3;spacingRight=3;rotatable=0;labelPosition=right;points=[];portConstraint=eastwest;strokeColor=inherit;" parent="0KQ5BcPpPN2Ff0RQvbfW-1" vertex="1">
          <mxGeometry y="70" width="220" height="8" as="geometry" />
        </mxCell>
        <mxCell id="0KQ5BcPpPN2Ff0RQvbfW-4" value="durata_sec(): intero &amp;gt;= 0&lt;br&gt;n_visualizzazionei: intero&amp;gt;=0&lt;br&gt;valutazione_media(): VotoMedio" style="text;strokeColor=none;fillColor=none;align=left;verticalAlign=top;spacingLeft=4;spacingRight=4;overflow=hidden;rotatable=0;points=[[0,0.5],[1,0.5]];portConstraint=eastwest;whiteSpace=wrap;html=1;" parent="0KQ5BcPpPN2Ff0RQvbfW-1" vertex="1">
          <mxGeometry y="78" width="220" height="72" as="geometry" />
        </mxCell>
        <mxCell id="0KQ5BcPpPN2Ff0RQvbfW-9" style="edgeStyle=orthogonalEdgeStyle;rounded=0;orthogonalLoop=1;jettySize=auto;html=1;exitX=0;exitY=0.5;exitDx=0;exitDy=0;entryX=0.998;entryY=0.426;entryDx=0;entryDy=0;entryPerimeter=0;endArrow=none;endFill=0;" parent="1" source="tEQEtVdm0KxNnin3mhNr-33" target="0KQ5BcPpPN2Ff0RQvbfW-4" edge="1">
          <mxGeometry relative="1" as="geometry" />
        </mxCell>
        <mxCell id="094TVuyrTuDsaZi3VQMl-12" style="edgeStyle=orthogonalEdgeStyle;rounded=0;orthogonalLoop=1;jettySize=auto;html=1;exitX=0.5;exitY=1;exitDx=0;exitDy=0;endArrow=none;endFill=0;dashed=1;dashPattern=8 8;" parent="1" source="0KQ5BcPpPN2Ff0RQvbfW-11" edge="1">
          <mxGeometry relative="1" as="geometry">
            <mxPoint x="60" y="60" as="targetPoint" />
          </mxGeometry>
        </mxCell>
        <mxCell id="0KQ5BcPpPN2Ff0RQvbfW-11" value="valutazione" style="swimlane;fontStyle=1;align=center;verticalAlign=top;childLayout=stackLayout;horizontal=1;startSize=26;horizontalStack=0;resizeParent=1;resizeParentMax=0;resizeLast=0;collapsible=1;marginBottom=0;whiteSpace=wrap;html=1;" parent="1" vertex="1">
          <mxGeometry x="-20" y="-58" width="160" height="60" as="geometry" />
        </mxCell>
        <mxCell id="0KQ5BcPpPN2Ff0RQvbfW-12" value="voto: 1..5" style="text;strokeColor=none;fillColor=none;align=left;verticalAlign=top;spacingLeft=4;spacingRight=4;overflow=hidden;rotatable=0;points=[[0,0.5],[1,0.5]];portConstraint=eastwest;whiteSpace=wrap;html=1;" parent="0KQ5BcPpPN2Ff0RQvbfW-11" vertex="1">
          <mxGeometry y="26" width="160" height="26" as="geometry" />
        </mxCell>
        <mxCell id="0KQ5BcPpPN2Ff0RQvbfW-13" value="" style="line;strokeWidth=1;fillColor=none;align=left;verticalAlign=middle;spacingTop=-1;spacingLeft=3;spacingRight=3;rotatable=0;labelPosition=right;points=[];portConstraint=eastwest;strokeColor=inherit;" parent="0KQ5BcPpPN2Ff0RQvbfW-11" vertex="1">
          <mxGeometry y="52" width="160" height="8" as="geometry" />
        </mxCell>
        <mxCell id="0KQ5BcPpPN2Ff0RQvbfW-17" value="0..*" style="text;html=1;align=center;verticalAlign=middle;resizable=0;points=[];autosize=1;strokeColor=none;fillColor=none;" parent="1" vertex="1">
          <mxGeometry x="1390" y="760" width="40" height="30" as="geometry" />
        </mxCell>
        <mxCell id="0KQ5BcPpPN2Ff0RQvbfW-18" value="commento" style="swimlane;fontStyle=1;align=center;verticalAlign=top;childLayout=stackLayout;horizontal=1;startSize=26;horizontalStack=0;resizeParent=1;resizeParentMax=0;resizeLast=0;collapsible=1;marginBottom=0;whiteSpace=wrap;html=1;" parent="1" vertex="1">
          <mxGeometry x="220" y="-60" width="160" height="60" as="geometry" />
        </mxCell>
        <mxCell id="0KQ5BcPpPN2Ff0RQvbfW-19" value="istante: dataora" style="text;strokeColor=none;fillColor=none;align=left;verticalAlign=top;spacingLeft=4;spacingRight=4;overflow=hidden;rotatable=0;points=[[0,0.5],[1,0.5]];portConstraint=eastwest;whiteSpace=wrap;html=1;" parent="0KQ5BcPpPN2Ff0RQvbfW-18" vertex="1">
          <mxGeometry y="26" width="160" height="26" as="geometry" />
        </mxCell>
        <mxCell id="0KQ5BcPpPN2Ff0RQvbfW-20" value="" style="line;strokeWidth=1;fillColor=none;align=left;verticalAlign=middle;spacingTop=-1;spacingLeft=3;spacingRight=3;rotatable=0;labelPosition=right;points=[];portConstraint=eastwest;strokeColor=inherit;" parent="0KQ5BcPpPN2Ff0RQvbfW-18" vertex="1">
          <mxGeometry y="52" width="160" height="8" as="geometry" />
        </mxCell>
        <mxCell id="094TVuyrTuDsaZi3VQMl-19" style="edgeStyle=orthogonalEdgeStyle;rounded=0;orthogonalLoop=1;jettySize=auto;html=1;exitX=0.5;exitY=0;exitDx=0;exitDy=0;entryX=0.285;entryY=1.027;entryDx=0;entryDy=0;entryPerimeter=0;endArrow=none;endFill=0;" parent="1" source="0KQ5BcPpPN2Ff0RQvbfW-28" target="094TVuyrTuDsaZi3VQMl-4" edge="1">
          <mxGeometry relative="1" as="geometry" />
        </mxCell>
        <mxCell id="0KQ5BcPpPN2Ff0RQvbfW-28" value="Playlist" style="swimlane;fontStyle=1;align=center;verticalAlign=top;childLayout=stackLayout;horizontal=1;startSize=26;horizontalStack=0;resizeParent=1;resizeParentMax=0;resizeLast=0;collapsible=1;marginBottom=0;whiteSpace=wrap;html=1;" parent="1" vertex="1">
          <mxGeometry x="-158" y="318" width="180" height="100" as="geometry" />
        </mxCell>
        <mxCell id="0KQ5BcPpPN2Ff0RQvbfW-51" style="edgeStyle=orthogonalEdgeStyle;rounded=0;orthogonalLoop=1;jettySize=auto;html=1;exitX=0.48;exitY=0.985;exitDx=0;exitDy=0;exitPerimeter=0;endArrow=block;endFill=0;entryX=0.48;entryY=0.985;entryDx=0;entryDy=0;entryPerimeter=0;" parent="0KQ5BcPpPN2Ff0RQvbfW-28" target="0KQ5BcPpPN2Ff0RQvbfW-31" edge="1">
          <mxGeometry relative="1" as="geometry">
            <Array as="points">
              <mxPoint x="86" y="192" />
              <mxPoint x="86" y="146" />
            </Array>
            <mxPoint x="86" y="192" as="sourcePoint" />
          </mxGeometry>
        </mxCell>
        <mxCell id="0KQ5BcPpPN2Ff0RQvbfW-29" value="nome: stringa {id}&lt;br&gt;istante: DataOra" style="text;strokeColor=none;fillColor=none;align=left;verticalAlign=top;spacingLeft=4;spacingRight=4;overflow=hidden;rotatable=0;points=[[0,0.5],[1,0.5]];portConstraint=eastwest;whiteSpace=wrap;html=1;" parent="0KQ5BcPpPN2Ff0RQvbfW-28" vertex="1">
          <mxGeometry y="26" width="180" height="44" as="geometry" />
        </mxCell>
        <mxCell id="0KQ5BcPpPN2Ff0RQvbfW-30" value="" style="line;strokeWidth=1;fillColor=none;align=left;verticalAlign=middle;spacingTop=-1;spacingLeft=3;spacingRight=3;rotatable=0;labelPosition=right;points=[];portConstraint=eastwest;strokeColor=inherit;" parent="0KQ5BcPpPN2Ff0RQvbfW-28" vertex="1">
          <mxGeometry y="70" width="180" height="8" as="geometry" />
        </mxCell>
        <mxCell id="0KQ5BcPpPN2Ff0RQvbfW-31" value=".." style="text;strokeColor=none;fillColor=none;align=left;verticalAlign=top;spacingLeft=4;spacingRight=4;overflow=hidden;rotatable=0;points=[[0,0.5],[1,0.5]];portConstraint=eastwest;whiteSpace=wrap;html=1;" parent="0KQ5BcPpPN2Ff0RQvbfW-28" vertex="1">
          <mxGeometry y="78" width="180" height="22" as="geometry" />
        </mxCell>
        <mxCell id="0KQ5BcPpPN2Ff0RQvbfW-46" style="edgeStyle=orthogonalEdgeStyle;rounded=0;orthogonalLoop=1;jettySize=auto;html=1;exitX=0.5;exitY=0;exitDx=0;exitDy=0;entryX=0.5;entryY=0;entryDx=0;entryDy=0;endArrow=none;endFill=0;" parent="1" source="0KQ5BcPpPN2Ff0RQvbfW-32" target="0KQ5BcPpPN2Ff0RQvbfW-36" edge="1">
          <mxGeometry relative="1" as="geometry" />
        </mxCell>
        <mxCell id="0KQ5BcPpPN2Ff0RQvbfW-32" value="Pubbliche" style="swimlane;fontStyle=1;align=center;verticalAlign=top;childLayout=stackLayout;horizontal=1;startSize=26;horizontalStack=0;resizeParent=1;resizeParentMax=0;resizeLast=0;collapsible=1;marginBottom=0;whiteSpace=wrap;html=1;" parent="1" vertex="1">
          <mxGeometry x="-250" y="530" width="160" height="34" as="geometry" />
        </mxCell>
        <mxCell id="0KQ5BcPpPN2Ff0RQvbfW-34" value="" style="line;strokeWidth=1;fillColor=none;align=left;verticalAlign=middle;spacingTop=-1;spacingLeft=3;spacingRight=3;rotatable=0;labelPosition=right;points=[];portConstraint=eastwest;strokeColor=inherit;" parent="0KQ5BcPpPN2Ff0RQvbfW-32" vertex="1">
          <mxGeometry y="26" width="160" height="8" as="geometry" />
        </mxCell>
        <mxCell id="0KQ5BcPpPN2Ff0RQvbfW-36" value="Private" style="swimlane;fontStyle=1;align=center;verticalAlign=top;childLayout=stackLayout;horizontal=1;startSize=26;horizontalStack=0;resizeParent=1;resizeParentMax=0;resizeLast=0;collapsible=1;marginBottom=0;whiteSpace=wrap;html=1;" parent="1" vertex="1">
          <mxGeometry x="-50" y="530" width="160" height="34" as="geometry" />
        </mxCell>
        <mxCell id="0KQ5BcPpPN2Ff0RQvbfW-37" value="" style="line;strokeWidth=1;fillColor=none;align=left;verticalAlign=middle;spacingTop=-1;spacingLeft=3;spacingRight=3;rotatable=0;labelPosition=right;points=[];portConstraint=eastwest;strokeColor=inherit;" parent="0KQ5BcPpPN2Ff0RQvbfW-36" vertex="1">
          <mxGeometry y="26" width="160" height="8" as="geometry" />
        </mxCell>
        <mxCell id="0KQ5BcPpPN2Ff0RQvbfW-40" value="{disjoint,complete}" style="text;html=1;align=center;verticalAlign=middle;resizable=0;points=[];autosize=1;strokeColor=none;fillColor=none;" parent="1" vertex="1">
          <mxGeometry x="-50" y="450" width="120" height="30" as="geometry" />
        </mxCell>
        <mxCell id="0KQ5BcPpPN2Ff0RQvbfW-41" value="ParametroDeSistema" style="swimlane;fontStyle=1;align=center;verticalAlign=top;childLayout=stackLayout;horizontal=1;startSize=26;horizontalStack=0;resizeParent=1;resizeParentMax=0;resizeLast=0;collapsible=1;marginBottom=0;whiteSpace=wrap;html=1;" parent="1" vertex="1">
          <mxGeometry x="-480" y="-186" width="160" height="78" as="geometry" />
        </mxCell>
        <mxCell id="0KQ5BcPpPN2Ff0RQvbfW-42" value="nome: stringa {id}&lt;br&gt;valore: reale" style="text;strokeColor=none;fillColor=none;align=left;verticalAlign=top;spacingLeft=4;spacingRight=4;overflow=hidden;rotatable=0;points=[[0,0.5],[1,0.5]];portConstraint=eastwest;whiteSpace=wrap;html=1;" parent="0KQ5BcPpPN2Ff0RQvbfW-41" vertex="1">
          <mxGeometry y="26" width="160" height="44" as="geometry" />
        </mxCell>
        <mxCell id="0KQ5BcPpPN2Ff0RQvbfW-43" value="" style="line;strokeWidth=1;fillColor=none;align=left;verticalAlign=middle;spacingTop=-1;spacingLeft=3;spacingRight=3;rotatable=0;labelPosition=right;points=[];portConstraint=eastwest;strokeColor=inherit;" parent="0KQ5BcPpPN2Ff0RQvbfW-41" vertex="1">
          <mxGeometry y="70" width="160" height="8" as="geometry" />
        </mxCell>
        <mxCell id="094TVuyrTuDsaZi3VQMl-11" style="edgeStyle=orthogonalEdgeStyle;rounded=0;orthogonalLoop=1;jettySize=auto;html=1;exitX=0.5;exitY=0;exitDx=0;exitDy=0;endArrow=none;endFill=0;" parent="1" source="094TVuyrTuDsaZi3VQMl-1" target="0KQ5BcPpPN2Ff0RQvbfW-1" edge="1">
          <mxGeometry relative="1" as="geometry">
            <Array as="points">
              <mxPoint x="-22" y="59" />
              <mxPoint x="282" y="59" />
              <mxPoint x="282" y="60" />
              <mxPoint x="565" y="60" />
            </Array>
          </mxGeometry>
        </mxCell>
        <mxCell id="094TVuyrTuDsaZi3VQMl-1" value="Utente" style="swimlane;fontStyle=1;align=center;verticalAlign=top;childLayout=stackLayout;horizontal=1;startSize=26;horizontalStack=0;resizeParent=1;resizeParentMax=0;resizeLast=0;collapsible=1;marginBottom=0;whiteSpace=wrap;html=1;" parent="1" vertex="1">
          <mxGeometry x="-127" y="79" width="210" height="94" as="geometry" />
        </mxCell>
        <mxCell id="094TVuyrTuDsaZi3VQMl-2" value="nome_utente: stringa {id}&lt;br&gt;iscrizione: DataOra" style="text;strokeColor=none;fillColor=none;align=left;verticalAlign=top;spacingLeft=4;spacingRight=4;overflow=hidden;rotatable=0;points=[[0,0.5],[1,0.5]];portConstraint=eastwest;whiteSpace=wrap;html=1;" parent="094TVuyrTuDsaZi3VQMl-1" vertex="1">
          <mxGeometry y="26" width="210" height="34" as="geometry" />
        </mxCell>
        <mxCell id="094TVuyrTuDsaZi3VQMl-3" value="" style="line;strokeWidth=1;fillColor=none;align=left;verticalAlign=middle;spacingTop=-1;spacingLeft=3;spacingRight=3;rotatable=0;labelPosition=right;points=[];portConstraint=eastwest;strokeColor=inherit;" parent="094TVuyrTuDsaZi3VQMl-1" vertex="1">
          <mxGeometry y="60" width="210" height="8" as="geometry" />
        </mxCell>
        <mxCell id="094TVuyrTuDsaZi3VQMl-4" value="playlist_pubbliche(): Playlist[0..*]" style="text;strokeColor=none;fillColor=none;align=left;verticalAlign=top;spacingLeft=4;spacingRight=4;overflow=hidden;rotatable=0;points=[[0,0.5],[1,0.5]];portConstraint=eastwest;whiteSpace=wrap;html=1;" parent="094TVuyrTuDsaZi3VQMl-1" vertex="1">
          <mxGeometry y="68" width="210" height="26" as="geometry" />
        </mxCell>
        <mxCell id="094TVuyrTuDsaZi3VQMl-6" style="edgeStyle=orthogonalEdgeStyle;rounded=0;orthogonalLoop=1;jettySize=auto;html=1;exitX=0;exitY=0.5;exitDx=0;exitDy=0;entryX=0.99;entryY=0.625;entryDx=0;entryDy=0;entryPerimeter=0;endArrow=none;endFill=0;" parent="1" source="tEQEtVdm0KxNnin3mhNr-120" target="094TVuyrTuDsaZi3VQMl-3" edge="1">
          <mxGeometry relative="1" as="geometry" />
        </mxCell>
        <mxCell id="094TVuyrTuDsaZi3VQMl-10" value="commento_vis" style="text;html=1;align=center;verticalAlign=middle;resizable=0;points=[];autosize=1;strokeColor=none;fillColor=none;" parent="1" vertex="1">
          <mxGeometry x="255" y="20" width="100" height="30" as="geometry" />
        </mxCell>
        <mxCell id="094TVuyrTuDsaZi3VQMl-13" value="1..1" style="text;html=1;align=center;verticalAlign=middle;resizable=0;points=[];autosize=1;strokeColor=none;fillColor=none;" parent="1" vertex="1">
          <mxGeometry x="-30" y="176" width="40" height="30" as="geometry" />
        </mxCell>
        <mxCell id="094TVuyrTuDsaZi3VQMl-14" value="1..1" style="text;html=1;align=center;verticalAlign=middle;resizable=0;points=[];autosize=1;strokeColor=none;fillColor=none;" parent="1" vertex="1">
          <mxGeometry x="260" y="2" width="40" height="30" as="geometry" />
        </mxCell>
        <mxCell id="094TVuyrTuDsaZi3VQMl-15" value="0..*" style="text;html=1;align=center;verticalAlign=middle;resizable=0;points=[];autosize=1;strokeColor=none;fillColor=none;" parent="1" vertex="1">
          <mxGeometry x="260" y="77" width="40" height="30" as="geometry" />
        </mxCell>
        <mxCell id="094TVuyrTuDsaZi3VQMl-16" value="1..1" style="text;html=1;align=center;verticalAlign=middle;resizable=0;points=[];autosize=1;strokeColor=none;fillColor=none;" parent="1" vertex="1">
          <mxGeometry x="80" y="113" width="40" height="30" as="geometry" />
        </mxCell>
        <mxCell id="094TVuyrTuDsaZi3VQMl-17" value="0..*" style="text;html=1;align=center;verticalAlign=middle;resizable=0;points=[];autosize=1;strokeColor=none;fillColor=none;" parent="1" vertex="1">
          <mxGeometry x="-70" y="47" width="40" height="30" as="geometry" />
        </mxCell>
        <mxCell id="094TVuyrTuDsaZi3VQMl-18" value="0..*" style="text;html=1;align=center;verticalAlign=middle;resizable=0;points=[];autosize=1;strokeColor=none;fillColor=none;" parent="1" vertex="1">
          <mxGeometry x="520" y="100" width="40" height="30" as="geometry" />
        </mxCell>
        <mxCell id="094TVuyrTuDsaZi3VQMl-20" value="ut_playlist" style="text;html=1;align=center;verticalAlign=middle;resizable=0;points=[];autosize=1;strokeColor=none;fillColor=none;" parent="1" vertex="1">
          <mxGeometry x="-158" y="230" width="80" height="30" as="geometry" />
        </mxCell>
        <mxCell id="094TVuyrTuDsaZi3VQMl-21" value="1..1 {id}" style="text;html=1;align=center;verticalAlign=middle;resizable=0;points=[];autosize=1;strokeColor=none;fillColor=none;" parent="1" vertex="1">
          <mxGeometry x="-127" y="176" width="60" height="30" as="geometry" />
        </mxCell>
        <mxCell id="094TVuyrTuDsaZi3VQMl-22" value="0..*" style="text;html=1;align=center;verticalAlign=middle;resizable=0;points=[];autosize=1;strokeColor=none;fillColor=none;" parent="1" vertex="1">
          <mxGeometry x="-120" y="290" width="40" height="30" as="geometry" />
        </mxCell>
        <mxCell id="094TVuyrTuDsaZi3VQMl-23" style="edgeStyle=orthogonalEdgeStyle;rounded=0;orthogonalLoop=1;jettySize=auto;html=1;exitX=1;exitY=0.5;exitDx=0;exitDy=0;entryX=0.231;entryY=1.012;entryDx=0;entryDy=0;entryPerimeter=0;endArrow=none;endFill=0;" parent="1" source="0KQ5BcPpPN2Ff0RQvbfW-29" target="0KQ5BcPpPN2Ff0RQvbfW-4" edge="1">
          <mxGeometry relative="1" as="geometry" />
        </mxCell>
        <mxCell id="094TVuyrTuDsaZi3VQMl-24" value="video_in_playlist" style="text;html=1;align=center;verticalAlign=middle;resizable=0;points=[];autosize=1;strokeColor=none;fillColor=none;" parent="1" vertex="1">
          <mxGeometry x="190" y="313" width="110" height="30" as="geometry" />
        </mxCell>
        <mxCell id="094TVuyrTuDsaZi3VQMl-25" value="0..*" style="text;html=1;align=center;verticalAlign=middle;resizable=0;points=[];autosize=1;strokeColor=none;fillColor=none;" parent="1" vertex="1">
          <mxGeometry x="22" y="333" width="40" height="30" as="geometry" />
        </mxCell>
        <mxCell id="094TVuyrTuDsaZi3VQMl-26" value="0..*" style="text;html=1;align=center;verticalAlign=middle;resizable=0;points=[];autosize=1;strokeColor=none;fillColor=none;" parent="1" vertex="1">
          <mxGeometry x="490" y="283" width="40" height="30" as="geometry" />
        </mxCell>
        <mxCell id="094TVuyrTuDsaZi3VQMl-27" value="&amp;lt;&amp;lt;ordered&amp;gt;&amp;gt;" style="text;html=1;align=center;verticalAlign=middle;resizable=0;points=[];autosize=1;strokeColor=none;fillColor=none;" parent="1" vertex="1">
          <mxGeometry x="410" y="303" width="90" height="30" as="geometry" />
        </mxCell>
      </root>
    </mxGraphModel>
  </diagram>
</mxfile>
